HIERARCHY
ROOT Hips
{
  OFFSET -120.941 90.2419 36.7815
  CHANNELS 6 Xposition Yposition Zposition Zrotation Xrotation Yrotation
  JOINT RightUpLeg
  {
    OFFSET -8.9458 -8.66707 0.101652
    CHANNELS 3 Zrotation Xrotation Yrotation
    JOINT RightLeg
    {
      OFFSET 0 -44.4227 1.3727
      CHANNELS 3 Zrotation Xrotation Yrotation
      JOINT RightFoot
      {
        OFFSET 0.253549 -42.0924 -1.46059
        CHANNELS 3 Zrotation Xrotation Yrotation
        JOINT RightToes
        {
          OFFSET 0.04 -4.41509 8.4991
          CHANNELS 3 Zrotation Xrotation Yrotation
          End Site
          {
            OFFSET -0.08 -0.137448 9.77979
          }
        }
      }
    }
  }
  JOINT Spine
  {
    OFFSET 0 11.8905 0
    CHANNELS 3 Zrotation Xrotation Yrotation
    JOINT Spine1
    {
      OFFSET 0 25.6574 0.127663
      CHANNELS 3 Zrotation Xrotation Yrotation
      JOINT HEad
      {
        OFFSET 0 8.73416 0.011341
        CHANNELS 3 Zrotation Xrotation Yrotation
        End Site
        {
          OFFSET -0.29 12.7742 2.51395
        }
      }
      JOINT LeftShoulder1
      {
        OFFSET 8.99 -0.362252 -0.22
        CHANNELS 3 Zrotation Xrotation Yrotation
        JOINT LeftArm
        {
          OFFSET 10.2827 -0.00338 0.322123
          CHANNELS 3 Zrotation Xrotation Yrotation
          JOINT LeftForeArm
          {
            OFFSET 32.7669 0.099144 -1.42434
            CHANNELS 3 Zrotation Xrotation Yrotation
            JOINT LeftHand
            {
              OFFSET 27.5643 0.085362 1.02216
              CHANNELS 3 Zrotation Xrotation Yrotation
              End Site
              {
                OFFSET 16.7443 -0.6 1.50291
              }
            }
          }
        }
      }
      JOINT RightShoulder
      {
        OFFSET -8.99 -0.362252 -0.22
        CHANNELS 3 Zrotation Xrotation Yrotation
        JOINT RightArm
        {
          OFFSET -10.2827 -0.00338 0.322123
          CHANNELS 3 Zrotation Xrotation Yrotation
          JOINT RightForeArm
          {
            OFFSET -32.8971 0.099144 -1.42434
            CHANNELS 3 Zrotation Xrotation Yrotation
            JOINT RightHand
            {
              OFFSET -27.4921 0.085362 1.02216
              CHANNELS 3 Zrotation Xrotation Yrotation
              End Site
              {
                OFFSET -16.6312 -0.6 1.50291
              }
            }
          }
        }
      }
    }
  }
  JOINT LeftUpLeg
  {
    OFFSET 8.9458 -8.66707 0.101652
    CHANNELS 3 Zrotation Xrotation Yrotation
    JOINT LeftLeg
    {
      OFFSET 0 -44.4227 1.3727
      CHANNELS 3 Zrotation Xrotation Yrotation
      JOINT LeftFoot
      {
        OFFSET -0.253549 -42.0924 -1.46059
        CHANNELS 3 Zrotation Xrotation Yrotation
        JOINT LeftToes
        {
          OFFSET -0.04 -4.41509 8.4991
          CHANNELS 3 Zrotation Xrotation Yrotation
          End Site
          {
            OFFSET 0.08 -0.047448 9.77979
          }
        }
      }
    }
  }
}
MOTION
Frames:	16
Frame Time:	0.0166667
-60.5086 93.4529 44.0216 -7.97652 6.58546 -94.5919 -20.9797 -19.6761 6.3049 23.5823 39.95 -23.6623 36.9774 42.9748 -16.8741 -39.1698 -37.0414 4.86367 4.05707 11.2891 -4.44449 3.21595 22.2559 -8.60192 12.9692 -12.475 -20.8498 -1.59028e-015 1.39149e-015 3.18055e-015 -77.4355 -5.12865 -77.7573 22.1016 25.3166 -125.677 -3.22763 9.23224 23.6057 27.6759 -1.60056 -7.72794 67.4658 -42.7025 49.7304 -18.5477 25.1249 129.639 -5.41003 9.91381 -4.65472 28.2238 -3.48907 -3.95247 -17.0126 31.6684 28.0997 18.6515 27.8717 -6.01619 65.4031 -55.9931 32.7151 
-61.459 92.8396 43.4776 -8.78677 8.25106 -95.3932 -20.3743 -21.4326 5.13124 23.5367 42.8159 -20.7442 42.892 44.371 -20.3627 -38.4452 -38.308 8.13664 3.96172 11.7978 -5.08521 3.80642 23.1937 -10.0972 13.1319 -11.8062 -18.8672 -1.59028e-015 4.17448e-015 -3.18055e-015 -79.1357 -4.18592 -82.394 25.2999 26.0361 -125.444 -4.52821 8.94969 24.9725 27.7905 -1.45343 -7.20686 65.0734 -38.6894 46.8241 -19.4839 24.4425 126.259 -0.820976 9.9057 -11.0924 29.7574 -0.262097 -6.03749 -16.5007 29.7769 32.0817 21.7926 26.335 -6.70906 68.2838 -55.6024 36.3813 
-62.5696 92.2639 42.7209 -9.46119 9.78858 -95.9328 -19.6337 -22.562 4.31915 22.8406 44.3434 -18.1146 44.8884 43.7583 -21.1314 -37.5193 -38.6515 10.2202 3.7765 12.092 -5.72476 4.27682 23.7226 -11.6041 13.466 -10.4013 -17.2663 1.59028e-015 7.95139e-016 -0 -79.8389 -3.51706 -85.4845 28.4697 26.8855 -124.745 -6.74638 8.46468 26.2292 27.705 -1.32476 -6.78384 62.5044 -34.5453 44.3304 -19.6972 23.9902 122.466 5.34619 9.22267 -17.2161 31.5501 3.05255 -8.23201 -16.1532 27.6085 34.273 22.9115 24.1847 -6.59868 68.3333 -54.7778 37.523 
-63.8597 91.782 41.7792 -9.87113 11.0123 -96.164 -19.2121 -22.9859 4.37852 22.4731 43.9403 -17.1722 42.7389 42.1768 -19.3903 -36.5739 -38.0804 10.8755 3.58713 12.127 -6.28508 4.64485 23.7534 -12.9086 13.7753 -8.59067 -16.2704 -7.95139e-016 -3.57812e-015 3.18055e-015 -79.5558 -3.48087 -86.7773 30.1291 28.1557 -123.38 -8.50464 8.08176 26.7608 27.6776 -1.27907 -6.63257 59.642 -30.9597 41.9869 -18.8334 23.8718 119.361 10.5399 8.30483 -20.5884 33.3868 5.77011 -9.87755 -15.8868 25.8727 34.3324 22.0713 22.483 -6.01185 66.9763 -54.0546 37.0305 
-65.3174 91.4664 40.6806 -9.91122 11.6992 -96.0903 -19.3513 -22.7645 5.37672 22.4453 41.6415 -17.9669 37.7702 39.9162 -16.1747 -34.8237 -36.0475 10.491 3.4928 11.8929 -6.71153 4.8787 23.2547 -13.83 13.8325 -6.84427 -15.9888 3.97569e-016 -3.37934e-015 3.18055e-015 -78.2725 -4.15551 -86.2651 29.3973 29.5709 -121.414 -8.79913 8.0612 26.3208 27.9916 -1.38086 -6.92727 56.2514 -28.3649 39.5444 -16.756 23.9218 117.97 13.5322 7.84583 -20.8269 34.9885 7.24483 -10.6061 -15.7689 25.3181 32.3489 19.283 21.86 -5.1463 65.6815 -53.8513 35.8934 
-66.9069 91.3236 39.4501 -9.52164 11.6779 -95.6836 -20.0389 -22.0398 6.88515 21.8133 38.0295 -19.4373 32.2485 37.0584 -12.8291 -31.5925 -32.3138 9.72192 3.52841 11.4154 -6.98305 4.90639 22.2696 -14.283 13.5573 -5.52438 -16.4024 3.18055e-015 -9.93923e-016 -3.18055e-015 -76.042 -5.22896 -84.086 26.7255 30.4315 -119.483 -7.72358 8.36991 24.9959 28.8001 -1.67927 -7.77809 52.81 -27.9038 37.1129 -14.0695 24.9924 119.381 14.434 8.03315 -18.4506 36.1267 6.99648 -10.5038 -15.9101 26.4191 28.8992 14.8678 22.6679 -4.09797 65.5783 -54.358 35.0961 
-68.5867 91.2867 38.1135 -8.72161 10.9743 -94.8496 -21.087 -20.9305 8.2834 19.8415 33.8989 -20.5531 28.0792 33.9649 -10.3102 -27.0348 -27.3143 8.94557 3.67682 10.7593 -7.10787 4.74115 20.9303 -14.3191 13.0069 -4.7842 -17.4352 -1.59028e-015 -3.18055e-015 -0 -72.9739 -6.09949 -80.5189 23.6116 30.0336 -118.584 -6.20695 8.74945 23.3029 29.836 -2.11897 -8.98764 48.6447 -28.2194 34.6471 -11.4994 25.1615 122.877 14.3426 8.57367 -14.4552 36.786 4.82475 -10.0033 -16.395 29.1865 24.7691 9.53855 25.1733 -2.90181 66.8802 -55.4733 35.0342 
-70.317 91.2595 36.6985 -7.66902 9.85182 -93.4881 -22.2478 -19.4362 9.29637 16.8437 29.8676 -20.9179 25.744 30.8866 -8.71393 -21.7309 -21.6216 8.00669 3.90214 10.0426 -7.08957 4.51365 19.4904 -14.0475 12.3551 -4.67941 -19.057 1.59028e-015 7.95139e-016 -6.36111e-015 -69.2919 -6.14134 -76.1435 21.4599 28.104 -119.282 -5.1757 8.98772 22.0161 30.5033 -2.51342 -10.0717 44.3901 -29.6489 32.27 -9.89408 24.0456 127.841 13.6371 9.23585 -9.66496 37.1466 0.926032 -9.53434 -17.1899 33.2382 20.4932 3.95879 29.4303 -1.47644 68.1603 -56.9004 34.5476 
-72.0528 91.1756 35.2289 -6.67921 8.65178 -91.6069 -23.3129 -17.4577 10.1656 13.8797 26.3306 -20.6288 24.4957 27.5974 -7.569 -16.1274 -15.6563 6.53036 4.10988 9.42555 -6.88901 4.33206 18.3002 -13.498 11.8806 -5.27225 -21.3128 3.97569e-016 1.59028e-015 3.18055e-015 -65.4457 -5.04199 -71.9408 20.7546 25.0059 -121.174 -5.03622 9.03089 21.5907 30.367 -2.6949 -10.6723 40.6476 -33.0865 29.9643 -9.48264 21.8344 132.876 11.7843 9.87421 -4.5644 37.3721 -4.04621 -9.2658 -17.981 37.9332 16.3424 -1.50399 34.9774 0.334197 66.9025 -58.3681 31.2655 
-73.7284 91.0008 33.7281 -6.1145 7.56934 -89.3862 -24.1843 -14.9556 11.174 11.867 23.6078 -19.9811 23.3172 24.0083 -6.4675 -10.9521 -10.2667 4.4195 4.16162 9.04888 -6.45033 4.17831 17.6503 -12.6 11.7935 -6.5477 -24.2656 1.98785e-015 -1.98785e-016 -3.18055e-015 -62.0057 -3.05464 -68.9298 21.1331 21.6622 -123.268 -5.63141 8.92394 21.8997 29.3792 -2.65113 -10.8023 37.727 -40.0283 27.7248 -9.71036 20.1951 136.222 8.17066 10.2722 0.527332 37.4448 -9.22147 -9.15098 -18.2056 42.6081 12.6574 -6.49808 40.7017 2.51264 63.1144 -59.6879 25.2722 
-75.2563 90.6742 32.2313 -6.19718 6.59788 -87.1511 -24.8948 -12.128 12.1823 11.1199 21.9297 -19.3691 21.6812 20.833 -5.41152 -7.61279 -6.89226 2.24211 4.00008 8.95952 -5.76432 3.9536 17.6086 -11.2828 12.0482 -8.25723 -27.8828 -7.95139e-016 -4.96962e-016 1.59028e-015 -59.3559 -0.810122 -67.5206 21.9599 19.0501 -124.793 -6.4875 8.7542 22.501 27.6339 -2.45131 -10.6324 35.2108 -50.8107 25.5886 -9.9874 20.9304 136.34 3.41275 10.2205 4.64673 37.2417 -13.91 -9.12277 -17.4841 46.7566 9.99489 -10.1629 45.2345 4.49348 60.6527 -61.0882 20.5878 
-76.5576 90.105 30.7947 -6.91997 5.65865 -85.2998 -25.5369 -9.43865 12.6808 11.4244 21.4794 -19.142 19.6561 19.0344 -4.59559 -7.43465 -6.58186 0.847678 3.70759 9.10371 -4.88781 3.57015 18.0334 -9.57124 12.4244 -9.96348 -31.9237 0 2.18663e-015 -0 -57.565 1.12848 -67.3314 22.7491 17.5896 -125.542 -7.17362 8.61109 22.9868 25.0277 -2.10078 -10.1375 31.6461 -62.8459 23.0608 -10.3996 23.7387 132.144 -0.70115 9.90306 6.21082 36.7342 -17.7571 -9.19419 -16.1553 50.0043 9.14566 -11.1398 47.7073 5.20713 61.7425 -62.7436 19.7925 
-77.6037 89.2435 29.4805 -8.11525 4.71855 -84.2294 -26.1607 -7.39649 12.1584 12.1528 22.3735 -19.2922 17.6095 19.1009 -4.11953 -10.7876 -9.48131 0.514961 3.3929 9.39544 -3.91677 3.00001 18.7333 -7.59535 12.7139 -11.3114 -35.9052 7.45443e-016 -3.05942e-015 7.95139e-016 -56.5329 2.37985 -67.5898 23.2148 17.0707 -125.714 -7.49326 8.54722 23.1462 21.1489 -1.5254 -8.95842 24.0843 -71.7063 17.6994 -11.6125 26.4454 123.001 -2.92737 9.73658 4.33259 36.0756 -20.5843 -9.35066 -15.2094 52.0635 10.8947 -8.58002 48.0249 3.95982 65.1749 -64.0479 22.1408 
-78.4288 88.1199 28.3432 -9.55928 3.82601 -84.2609 -26.744 -6.32979 10.5686 12.4628 24.4655 -19.5042 16.0027 21.1432 -4.01277 -17.2808 -15.2217 0.710214 3.10508 9.78217 -2.93385 2.28713 19.5894 -5.5038 12.7307 -12.2505 -39.276 2.48481e-016 3.047e-015 -7.95139e-016 -56.2067 2.615 -67.655 23.1642 17.1001 -125.691 -7.42485 8.57118 22.9711 15.6055 -0.744354 -6.65674 11.7843 -74.3041 8.53355 -13.875 28.0599 108.458 -3.30541 9.8148 -0.456998 35.5073 -22.2248 -9.42037 -15.465 52.7524 15.2106 -3.08637 46.4532 1.18506 68.2747 -64.3473 25.2446 
-79.1251 86.8224 27.4279 -11.0051 3.10412 -85.5026 -27.2011 -6.32085 8.51634 11.7632 27.2758 -19.548 15.1985 24.8163 -4.27742 -26.1469 -22.8977 0.324453 2.88303 10.2313 -1.97401 1.54759 20.5228 -3.39195 12.238 -12.9921 -41.7424 9.93923e-017 -4.28629e-016 -0 -56.6475 1.62685 -67.2756 22.496 17.4659 -125.863 -7.0188 8.66559 22.5617 8.56954 -0.0237914 -3.16653 5.75074 -51.4707 8.63094 -15.2166 9.87493 78.8648 1.342 9.84016 -7.70229 35.2055 -22.6002 -9.19823 -16.9018 52.0592 20.7966 3.43015 43.4389 -1.83835 68.5784 -63.4602 26.6727 
-79.8343 85.4792 26.7543 -12.1776 2.68671 -87.697 -27.4251 -7.19194 6.88759 10.1691 30.188 -19.3496 15.2855 28.9553 -4.83978 -36.0897 -30.6789 -1.62354 2.79849 10.6662 -1.06715 0.957532 21.3844 -1.371 11.0339 -13.7578 -43.4146 -2.48481e-017 -2.88071e-015 -0 -57.8689 -0.42038 -66.4278 21.2861 18.0447 -126.489 -6.37987 8.80164 22.0189 0.914885 0.282056 0.978262 1.67837 -25.9341 10.9589 -17.6457 -6.40471 44.3817 9.26578 9.08297 -13.7771 35.182 -21.932 -8.67812 -18.8241 50.3049 25.8944 8.94972 39.8791 -4.02227 65.4448 -61.5299 25.59 
